:SAMPLES-PER-SECOND 30
:FULLY-SPECIFIED
:DEGREES
199
root  9.441155711 40.08111128 -2.389511161 -6.963012695 -69.51989746 12.24401855
lowerback  20.46380043 0.3876050115 2.49326992
upperback  5.270720005 0.3264420033 -5.372169971
thorax  -5.648670197 0.005468159914 -7.34623003
lowerneck  -1.084470034 4.024819851 0.1857340038
upperneck  9.555870056 4.915909767 4.144599915
head  3.147360086 2.540009975 1.458189964
lclavicle  0 -9.442270133e-015 7.951389973e-016
lhumerus  13.78219986 -13.97640038 70.47100067
lradius  2.410338981e-031 -2.580525147e-031 133.0469971
lwrist  -7.062250077e-031 -0 12.52180004
lhand  -1.496451383e-031 -27.76390076 20.11240005
lfingers  90 7.125020027 -90
lthumb  89.89689403 5.08795885 91.16245106
rclavicle  0 -9.442270133e-015 7.951389973e-016
rhumerus  25.90340042 15.60849953 -76.80840302
rradius  -2.189678087e-031 2.770226329e-031 128.3240051
rwrist  3.531125038e-031 -1.765562519e-031 -3.114490032
rhand  -7.920061211e-032 -33.2840004 9.303460121
rfingers  -90 -7.125020027 -90
rthumb  -92.93752616 -24.25625642 -97.11982154
rfemur  -26.73220062 11.95440006 3.282730103
rtibia  -0 0 70.81790161
rfoot  -0 2.464050055 -9.643250465
rtoes  5.373923086 19.29304026 -105.8922705
lfemur  -38.11949921 8.003720284 -20.52029991
ltibia  -0 0 38.3852005
lfoot  4.414024762e-032 -0.4197730124 -4.390379906
ltoes  -4.250644065 -19.5611806 -102.515957
200
root  9.58108902 40.05155488 -2.484222284 -6.202026367 -68.12809753 11.38500977
lowerback  20.34379959 0.02471929975 3.148570061
upperback  5.541289806 -0.06143309921 -5.928760052
thorax  -5.34005022 -0.1802030057 -8.251000404
lowerneck  -0.9739940166 4.008019924 0.9322919846
upperneck  9.220820427 4.844029903 4.500490189
head  3.024610043 2.535969973 1.431929946
lclavicle  0 -9.442270133e-015 7.951389973e-016
lhumerus  14.88539982 -14.56330013 69.02880096
lradius  2.391358237e-031 -2.598124288e-031 132.6269989
lwrist  -1.412450015e-030 -0 12.72249985
lhand  -1.496451383e-031 -27.76390076 20.11240005
lfingers  90 7.125020027 -90
lthumb  89.89689403 5.08795885 91.16245106
rclavicle  0 -9.442270133e-015 7.951389973e-016
rhumerus  26.28129959 14.52390003 -77.92089844
rradius  -2.175725339e-031 2.781198175e-031 128.0359955
rwrist  1.412450015e-030 -1.765562519e-031 -3.55250001
rhand  -7.920061211e-032 -33.2840004 9.303460121
rfingers  -90 -7.125020027 -90
rthumb  -92.93752616 -24.25625642 -97.11982154
rfemur  -28.26490021 12.45460033 3.000629902
rtibia  -0 0 72.03029633
rfoot  -8.835999265e-032 2.466589928 -7.107299805
rtoes  5.373923086 19.29304026 -105.8922705
lfemur  -38.14289856 8.081069946 -20.25020027
ltibia  -0 0 41.40019989
lfoot  4.416402821e-032 -1.926599979 -4.376830101
ltoes  -4.250644065 -19.5611806 -102.515957
201
root  9.722199778 39.99466783 -2.577377868 -5.541992187 -66.80149841 10.51898193
lowerback  20.46170044 -0.3608889878 3.400160074
upperback  5.665810108 -0.5330470204 -6.170770168
thorax  -5.344950199 -0.4129180014 -8.55725956
lowerneck  -0.7852090001 4.099520206 1.339319944
upperneck  9.006230354 4.949140072 4.651919842
head  2.92140007 2.600159883 1.402879953
lclavicle  0 -9.442270133e-015 7.951389973e-016
lhumerus  15.54940033 -14.74230003 68.15200043
lradius  2.373116099e-031 -2.614797128e-031 132.2259979
lwrist  -7.062250077e-031 1.765562519e-031 12.73130035
lhand  -1.496451383e-031 -27.76390076 20.11240005
lfingers  90 7.125020027 -90
lthumb  89.89689403 5.08795885 91.16245106
rclavicle  0 -9.442270133e-015 7.951389973e-016
rhumerus  26.52779961 14.59759998 -78.25650024
rradius  -2.168096346e-031 2.787149489e-031 127.8789978
rwrist  7.062250077e-031 -1.765562519e-031 -5.390079975
rhand  -7.920061211e-032 -33.2840004 9.303460121
rfingers  -90 -7.125020027 -90
rthumb  -92.93752616 -24.25625642 -97.11982154
rfemur  -29.67329979 12.85140038 2.765439987
rtibia  -0 0 72.97540283
rfoot  -4.417628734e-032 2.352269888 -5.909170151
rtoes  5.373923086 19.29304026 -105.8922705
lfemur  -38.16189957 7.985320091 -19.69459915
ltibia  -0 0 44.87440109
lfoot  4.420396802e-032 -3.105269909 -5.352560043
ltoes  -4.250644065 -19.5611806 -102.515957
202
root  9.854800307 39.88911186 -2.671088947 -5.197998047 -65.62329865 9.963989258
lowerback  20.49699974 -0.8592140079 3.23281002
upperback  5.755549908 -1.216699958 -6.191830158
thorax  -5.382890224 -0.7468789816 -8.306889534
lowerneck  -0.5134099722 4.440030098 0.759370029
upperneck  8.797400475 5.411369801 5.038249969
head  2.765110016 2.815740108 1.62282002
lclavicle  0 -9.442270133e-015 7.951389973e-016
lhumerus  15.81239986 -14.25809956 67.72589874
lradius  2.355217386e-031 -2.630930463e-031 131.8350067
lwrist  -7.062250077e-031 -0 12.29590034
lhand  -1.496451383e-031 -27.76390076 20.11240005
lfingers  90 7.125020027 -90
lthumb  89.89689403 5.08795885 91.16245106
rclavicle  0 -9.442270133e-015 7.951389973e-016
rhumerus  27.01440048 15.11429977 -78.58599854
rradius  -2.159671071e-031 2.793683035e-031 127.7060013
rwrist  0 -1.765562519e-031 -6.236869812
rhand  -7.920061211e-032 -33.2840004 9.303460121
rfingers  -90 -7.125020027 -90
rthumb  -92.93752616 -24.25625642 -97.11982154
rfemur  -31.12639999 13.16429996 2.420300007
rtibia  -0 0 73.67230225
rfoot  -4.416251561e-032 1.867349982 -5.654459953
rtoes  5.373923086 19.29304026 -105.8922705
lfemur  -38.16989899 8.04294014 -19.09339905
ltibia  -0 0 48.65769958
lfoot  8.848315224e-032 -3.901180029 -6.801839828
ltoes  -4.250644065 -19.5611806 -102.515957
203
root  9.980355661 39.74977628 -2.762755634 -4.903991699 -64.57099915 9.395996094
lowerback  20.61490059 -1.602859974 2.571589947
upperback  5.646590233 -2.268009901 -5.663899899
thorax  -5.700980186 -1.259670019 -7.051690102
lowerneck  0.1187160015 5.170790195 -1.740419984
upperneck  8.534139633 6.431000233 5.781630039
head  2.434200048 3.254810095 2.27895999
lclavicle  0 -9.442270133e-015 7.951389973e-016
lhumerus  14.96150017 -12.7329998 68.23889923
lradius  2.344683109e-031 -2.640322926e-031 131.6060028
lwrist  -7.062250077e-031 -1.765562519e-031 11.16870022
lhand  -1.496451383e-031 -27.76390076 20.11240005
lfingers  90 7.125020027 -90
lthumb  89.89689403 5.08795885 91.16245106
rclavicle  0 -9.442270133e-015 7.951389973e-016
rhumerus  27.75979996 16.74300003 -78.50530243
rradius  -2.150688393e-031 2.800604127e-031 127.5220032
rwrist  7.062250077e-031 -0 -6.783040047
rhand  -7.920061211e-032 -33.2840004 9.303460121
rfingers  -90 -7.125020027 -90
rthumb  -92.93752616 -24.25625642 -97.11982154
rfemur  -32.51689911 13.51799965 2.101830006
rtibia  -0 0 74.07039642
rfoot  -4.414500651e-032 0.9402080178 -6.02628994
rtoes  5.373923086 19.29304026 -105.8922705
lfemur  -38.02230072 8.142789841 -18.30960083
ltibia  -0 0 52.57690048
lfoot  -0 -4.541319847 -7.812520027
ltoes  -4.250644065 -19.5611806 -102.515957
